<svg id="eGSFXasRNj71"
	xmlns="http://www.w3.org/2000/svg"
	xmlns:xlink="http://www.w3.org/1999/xlink" viewBox="0 0 720 720" shape-rendering="geometricPrecision" text-rendering="geometricPrecision">
	<ellipse id="eGSFXasRNj72" rx="360" ry="360" transform="matrix(1 0 0 1 359.99999999500073 360)" fill="rgb(0,0,0)" stroke="none" stroke-width="0"/>
	<g id="eGSFXasRNj73" transform="matrix(1 0 0 1 -130 -170)">
		<ellipse id="eGSFXasRNj74" rx="115" ry="115" transform="matrix(1 0 0 1 540.00000000000011 480)" fill="rgb(255,255,255)" stroke="none" stroke-width="0"/>
		<ellipse id="eGSFXasRNj75" rx="30" ry="30" transform="matrix(1 0 0 1 540 480)" fill="rgb(0,0,0)" stroke="none" stroke-width="0"/>
		<rect id="eGSFXasRNj76" width="215" height="60" rx="0" ry="0" transform="matrix(1 0 0 1 324.99999999999989 450)" fill="rgb(0,0,0)" stroke="none" stroke-width="0"/>
		<rect id="eGSFXasRNj77" width="186.098127" height="115.625159" rx="0" ry="0" transform="matrix(1.15530447819935 0 0 0.73513412167150 325.00000000143018 364.99999999976785)" fill="rgb(255,255,255)" stroke="none" stroke-width="0"/>
		<path id="eGSFXasRNj78" d="M325,510L535,695L655,695L445,510L325,510Z" fill="rgb(255,255,255)" stroke="none" stroke-width="0"/>
		<path id="eGSFXasRNj79" d="M445,510L541.351569,595L566.351569,595L470.327563,510" transform="matrix(1 0 0 1.01000000000000 0.15585099999998 -5.94999999999993)" fill="rgb(0,0,0)" stroke="none" stroke-width="1"/>
		<path id="eGSFXasRNj710" d="" fill="none" stroke="rgb(63,87,135)" stroke-width="1.920000"/>
	</g>
</svg>