<svg xmlns="http://www.w3.org/2000/svg" xmlns:xlink="http://www.w3.org/1999/xlink" width="72.438" height="42.539" viewBox="0 0 72.438 42.539">
  <defs>
    <linearGradient id="linear-gradient" x1="0.5" y1="1" x2="0.5" gradientUnits="objectBoundingBox">
      <stop offset="0" stop-color="#75cddc"/>
      <stop offset="0.35" stop-color="#754e9e"/>
      <stop offset="0.7" stop-color="#ec1d7e"/>
    </linearGradient>
  </defs>
  <path id="Path_61" data-name="Path 61" d="M115.721,73.987h4.511l-12.9,32.466h-1.442a4.989,4.989,0,0,1-4.714-3.2L89.571,73.987h5.394a4.986,4.986,0,0,1,4.713,3.2l5.654,14.253L111,77.189A4.993,4.993,0,0,1,115.721,73.987Zm16.35-7.47v-2.6h-3.736a5.637,5.637,0,0,0-5.627,5.625v2.322h4.018a5.355,5.355,0,0,0,5.345-5.344Zm-4.021,7.47a5.352,5.352,0,0,0-5.342,5.344v27.122h3.738a5.641,5.641,0,0,0,5.625-5.625V73.987Zm8.11,5.484,2.377.954a7.713,7.713,0,0,0,7.326-.74,4.475,4.475,0,0,1,4.788,0,4.41,4.41,0,0,1,2.088,4.013c-7.326.12-18.191,3.043-18.191,11.856,0,7.871,8.488,10.751,15.2,10.893,4,.084,12.262-.835,12.262-6.049V83.45a11.836,11.836,0,0,0-.606-3.874,9.2,9.2,0,0,0-5.575-5.718c-2.963-1.171-7.469-1.335-11.3-.567-3.787.762-6.986,2.347-8.369,6.18Zm7.32,16.084c0-3.018,4.353-6.739,9.356-6.718l-.1,11.881C149.717,101.716,143.414,100.892,143.48,95.555Z" transform="translate(-89.571 -63.914)" fill-rule="evenodd" fill="url(#linear-gradient)"/>
</svg>
