<svg xmlns="http://www.w3.org/2000/svg" width="135" height="36.432" viewBox="0 0 135 36.432">
    <defs>
        <linearGradient id="dksyg2gjha" x2="1" y1=".5" y2=".5" gradientUnits="objectBoundingBox">
            <stop offset=".217" stop-color="#fe2728"/>
            <stop offset=".802" stop-color="#840c85"/>
        </linearGradient>
    </defs>
    <g>
        <path fill="url(#dksyg2gjha)" d="M201.117 100.041a13.286 13.286 0 0 1 .2 16.6 11.488 11.488 0 0 1-8.581 4.087h-.559a11.15 11.15 0 0 1-7.007-2.386v1.777h-5.07v-7.845c0-7.743 0-18.279-.025-25.312v-.1l4.976-2.564-.025 21.834c-.051.787-.051 1.777-.025 2.64a7.724 7.724 0 0 0 2.285 5.636 6.3 6.3 0 0 0 4.671 1.929 7.8 7.8 0 0 0 3.351-.736c2.92-1.4 4.544-4.849 3.986-8.606a7.138 7.138 0 0 0-7.134-6.322 7.457 7.457 0 0 0-1.65.178 11.274 11.274 0 0 0-3.351 1.016V97.1a12.745 12.745 0 0 1 13.963 2.945zm-35.365.254c-3 0-6.3 1.777-6.906 5.154h13.227c.406 0 .152-.66.152-.66a6.2 6.2 0 0 0-6.3-4.468h-.178m9.977 12.973c.2-.152.432-.33.66-.482a11.317 11.317 0 0 0 1.9 3.427 18.429 18.429 0 0 1-12.364 3.91 13.565 13.565 0 0 1-4.773-.965 11.545 11.545 0 0 1-7.261-12.516c.584-5.128 3.351-8.632 8-10.13a12.546 12.546 0 0 1 3.96-.635 11.246 11.246 0 0 1 8.81 4.164 12.059 12.059 0 0 1 2.006 3.58 10.476 10.476 0 0 1 .381 1.269c.051.178.076.381.127.559.025.152.051.3.076.482a10.87 10.87 0 0 1 .051 2.031c0 .3-.025.609-.025.939v.812h-18.527a6.45 6.45 0 0 0 3.681 5.128 9.8 9.8 0 0 0 2.97.863 17.711 17.711 0 0 0 10.333-2.437m-35.34-13c-3 0-6.3 1.777-6.905 5.154h13.227c.406 0 .152-.66.152-.66a6.2 6.2 0 0 0-6.3-4.468h-.178m9.977 12.973c.2-.152.432-.33.66-.482a11.317 11.317 0 0 0 1.9 3.427 18.429 18.429 0 0 1-12.364 3.91 13.565 13.565 0 0 1-4.773-.965 11.545 11.545 0 0 1-7.261-12.516c.584-5.128 3.351-8.632 8-10.13a12.661 12.661 0 0 1 3.961-.635 11.171 11.171 0 0 1 8.81 4.164 12.06 12.06 0 0 1 2.006 3.58 10.481 10.481 0 0 1 .381 1.269c.051.178.076.381.127.559.025.152.051.3.076.482a10.865 10.865 0 0 1 .051 2.031c0 .3-.025.609-.025.939v.812h-18.529a6.45 6.45 0 0 0 3.681 5.128 9.8 9.8 0 0 0 2.97.863 17.773 17.773 0 0 0 10.333-2.437M128.356 97.2a8.546 8.546 0 0 0-3.605-.939 11.158 11.158 0 0 0-1.98.2 7.062 7.062 0 0 0-2.894 1.371v-1.65H115.1v23.966h4.57l.229-12.465c0-.66 0-1.32.025-1.98.051-3.123 1.752-5.052 4.443-5.052a5.963 5.963 0 0 1 .66.025 4.8 4.8 0 0 1 .914.228c.178.051.584.254.762.3l.914.432a10.963 10.963 0 0 1 2.158-3.707zm-24.144 17.848c1.98-.99 2.894-2.716 2.767-5.281v-.1a1.617 1.617 0 0 0-.228-.152 10.784 10.784 0 0 0-4.392-.939c-2.488.152-4.087.3-5.408 1.295a3.223 3.223 0 0 0-1.295 2.691 2.92 2.92 0 0 0 1.4 2.336 6.778 6.778 0 0 0 7.159.152m7.236-5.2v10.307a4.1 4.1 0 0 1-3.25-2.59s-.127.127-.355.33a12.306 12.306 0 0 1-11.678 1.8c-3.5-1.193-5.179-4.087-5-7.693.152-3.4 2.006-5.611 5.636-6.626a17.2 17.2 0 0 1 10.181.279 4.738 4.738 0 0 0-2.386-4.494 7.3 7.3 0 0 0-3.4-.787A9.74 9.74 0 0 0 95.758 102a5.706 5.706 0 0 0-2.539-3.427 12.946 12.946 0 0 1 6.906-2.539c.279-.025.584-.025.863-.025a17.954 17.954 0 0 1 4.138.482 8.057 8.057 0 0 1 6.372 6.5v6.855zm107.416 5.2c1.98-.99 2.894-2.716 2.767-5.281v-.1a1.62 1.62 0 0 0-.228-.152 10.785 10.785 0 0 0-4.392-.939c-2.488.152-4.087.3-5.408 1.295a3.223 3.223 0 0 0-1.295 2.691 2.893 2.893 0 0 0 1.371 2.336 6.824 6.824 0 0 0 7.185.152m7.236-5.2v10.307c-1.32-.33-2.843-1.041-3.25-2.59 0 0-.127.127-.355.33a12.306 12.306 0 0 1-11.678 1.8c-3.5-1.193-5.179-4.087-5-7.693.152-3.4 2.006-5.611 5.636-6.626a17.2 17.2 0 0 1 10.181.279 4.738 4.738 0 0 0-2.386-4.494 7.3 7.3 0 0 0-3.4-.787 9.74 9.74 0 0 0-5.442 1.622 5.706 5.706 0 0 0-2.539-3.427 12.946 12.946 0 0 1 6.905-2.539c.279-.025.584-.025.863-.025a17.954 17.954 0 0 1 4.138.482 8.09 8.09 0 0 1 6.372 6.5v6.855z" transform="translate(-91.15 -84.3)"/>
    </g>
</svg>
